<mxfile host="app.diagrams.net" modified="2023-07-17T03:10:57.002Z" agent="Mozilla/5.0 (Windows NT 10.0; Win64; x64) AppleWebKit/537.36 (KHTML, like Gecko) Chrome/114.0.0.0 Safari/537.36" version="21.6.2" etag="K8MNyRWPafqZ-1Uy0XDW" type="github">
  <diagram name="Страница 1" id="cDgyHgMWFeY4kz7likKo">
    <mxGraphModel>
      <root>
        <mxCell id="0" />
        <mxCell id="1" parent="0" />
      </root>
    </mxGraphModel>
  </diagram>
</mxfile>
